<svg xmlns="http://www.w3.org/2000/svg" width="100" height="100" viewBox="0 0 100 100" fill="#55EE22">
  <path id="icon-save" d="M96.862,24.112,78.138,5.388A10.714,10.714,0,0,0,70.562,2.25H10.714A10.714,10.714,0,0,0,0,12.964V91.536A10.714,10.714,0,0,0,10.714,102.25H89.286A10.714,10.714,0,0,0,100,91.536V31.688a10.714,10.714,0,0,0-3.138-7.576ZM50,87.964A14.286,14.286,0,1,1,64.286,73.679,14.286,14.286,0,0,1,50,87.964ZM71.429,19.991V42.429a2.679,2.679,0,0,1-2.679,2.679H16.964a2.679,2.679,0,0,1-2.679-2.679V19.214a2.679,2.679,0,0,1,2.679-2.679H67.973a2.678,2.678,0,0,1,1.894.785l.777.777a2.678,2.678,0,0,1,.785,1.894Z" transform="translate(0 -2.25)"/>
</svg>
