<svg xmlns="http://www.w3.org/2000/svg" width="100" height="100" viewBox="0 0 100 100">
  <g id="icon-joystick" transform="translate(353 511)">
    <circle id="Elipse_8" data-name="Elipse 8" cx="50" cy="50" r="50" transform="translate(-353 -511)" fill="#005"/>
    <g id="Icon_ionic-logo-game-controller-b" data-name="Icon ionic-logo-game-controller-b" transform="translate(-335.247 -489.176)">
      <path id="Caminho_1" data-name="Caminho 1" d="M9.5,14.386a1.364,1.364,0,1,0,1.357,1.364A1.359,1.359,0,0,0,9.5,14.386Z" transform="translate(5.835 7.853)" fill="#5e2"/>
      <path id="Caminho_2" data-name="Caminho 2" d="M60.41,27.219C57.571,15.367,54.572,9.074,48.559,7.293a11.945,11.945,0,0,0-3.442-.536c-3.7,0-6.28,1.968-12.869,1.968S23.076,6.757,19.38,6.757a11.812,11.812,0,0,0-3.441.536C9.926,9.074,6.926,15.381,4.088,27.219s-2.317,20.408,1.031,22a3.907,3.907,0,0,0,1.674.375c2.906,0,6.039-3.187,9.066-6.963,3.441-4.3,4.3-4.419,14.77-4.419h3.254c10.458,0,11.329.107,14.77,4.419,3.013,3.776,6.16,6.963,9.066,6.963a3.95,3.95,0,0,0,1.674-.375C62.727,47.613,63.236,39.056,60.41,27.219ZM16.073,29.187a5.3,5.3,0,1,1,5.249-5.3A5.287,5.287,0,0,1,16.073,29.187Zm23.153-2.611a2.692,2.692,0,1,1,2.692-2.692A2.692,2.692,0,0,1,39.226,26.576ZM45.1,32.454A2.685,2.685,0,1,1,47.8,29.776,2.689,2.689,0,0,1,45.1,32.454Zm0-11.757A2.692,2.692,0,1,1,47.8,18.005,2.692,2.692,0,0,1,45.1,20.7Zm5.879,5.879a2.692,2.692,0,1,1,2.692-2.692A2.692,2.692,0,0,1,50.983,26.576Z" transform="translate(0 0)" fill="#5e2"/>
    </g>
  </g>
</svg>
