<svg xmlns="http://www.w3.org/2000/svg" width="100" height="100" viewBox="0 0 100 100">
  <g id="icon-work" transform="translate(426 466)">
    <circle id="Elipse_10" data-name="Elipse 10" cx="50" cy="50" r="50" transform="translate(-426 -466)" fill="#005"/>
    <path id="Icon_material-work" data-name="Icon material-work" d="M48,13H38V8a4.983,4.983,0,0,0-5-5H23a4.983,4.983,0,0,0-5,5v5H8a4.962,4.962,0,0,0-4.975,5L3,45.5a4.983,4.983,0,0,0,5,5H48a4.983,4.983,0,0,0,5-5V18A4.983,4.983,0,0,0,48,13ZM33,13H23V8H33Z" transform="translate(-404 -442.75)" fill="#5e2"/>
  </g>
</svg>
