<svg xmlns="http://www.w3.org/2000/svg" width="100" height="100" viewBox="0 0 100 100">
  <g id="icon-gym" transform="translate(593 316)">
    <circle id="Elipse_4" data-name="Elipse 4" cx="50" cy="50" r="50" transform="translate(-593 -316)" fill="#005"/>
    <path id="Icon_map-gym" data-name="Icon map-gym" d="M18.558,47.083a1.067,1.067,0,0,1-.053,1.5l-2.3,2.153a1.059,1.059,0,0,1-1.5-.054L1.3,36.233a1.067,1.067,0,0,1,.054-1.5l2.305-2.15a1.058,1.058,0,0,1,1.5.054ZM35.666,19.9a1.067,1.067,0,0,1-.054,1.5L21.122,34.931a1.059,1.059,0,0,1-1.5-.054l-3.459-3.732a1.067,1.067,0,0,1,.054-1.5L30.708,16.109a1.057,1.057,0,0,1,1.495.054L35.666,19.9ZM23.488,42.475a1.068,1.068,0,0,1-.054,1.5l-2.305,2.152a1.058,1.058,0,0,1-1.5-.054L6.233,31.624a1.067,1.067,0,0,1,.053-1.5l2.3-2.151a1.059,1.059,0,0,1,1.5.054ZM45.814,20.413a1.067,1.067,0,0,1-.055,1.5l-2.3,2.152a1.06,1.06,0,0,1-1.5-.053L28.556,9.567a1.066,1.066,0,0,1,.053-1.5l2.311-2.157a1.057,1.057,0,0,1,1.495.054l13.4,14.45Zm4.922-4.6a1.069,1.069,0,0,1-.054,1.5l-2.3,2.151a1.057,1.057,0,0,1-1.495-.053L33.487,4.96a1.069,1.069,0,0,1,.053-1.5l2.3-2.155a1.055,1.055,0,0,1,1.493.053Z" transform="translate(-569 -292.001)" fill="#5e2"/>
  </g>
</svg>
