<svg xmlns="http://www.w3.org/2000/svg" width="100" height="100" viewBox="0 0 100 100">
  <g id="icon-blank" transform="translate(326 511)">
    <circle id="Elipse_9" data-name="Elipse 9" cx="50" cy="50" r="50" transform="translate(-326 -511)" fill="#005"/>
    <path id="Icon_awesome-file" data-name="Icon awesome-file" d="M23.333,14.167V0H2.5A2.494,2.494,0,0,0,0,2.5V50.833a2.494,2.494,0,0,0,2.5,2.5h35a2.494,2.494,0,0,0,2.5-2.5V16.667H25.833A2.507,2.507,0,0,1,23.333,14.167ZM40,12.7v.635H26.667V0H27.3a2.5,2.5,0,0,1,1.771.729l10.2,10.208A2.492,2.492,0,0,1,40,12.7Z" transform="translate(-296 -487.667)" fill="#5e2"/>
  </g>
</svg>
