<svg xmlns="http://www.w3.org/2000/svg" width="100" height="100" viewBox="0 0 100 100">
  <g id="icon_beach" data-name="icon=beach" transform="translate(431 314)">
    <circle id="Elipse_13" data-name="Elipse 13" cx="50" cy="50" r="50" transform="translate(-431 -314)" fill="#005"/>
    <path id="Icon_awesome-umbrella-beach" data-name="Icon awesome-umbrella-beach" d="M9.014,10.7l7.977,2.9C19.74,7.23,23.726,2.327,27.85.03A23.377,23.377,0,0,0,8.434,8.764a1.251,1.251,0,0,0,.58,1.931Zm10.332,3.762,18.631,6.784c2.794-9.483,1.461-18.1-3.33-19.842a5.229,5.229,0,0,0-1.8-.312c-4.533,0-10.021,5.4-13.5,13.371ZM40.74,4.727a17.719,17.719,0,0,1,1.031,4.312,33.483,33.483,0,0,1-1.48,13.045L48.308,25A1.25,1.25,0,0,0,49.993,23.9,23.391,23.391,0,0,0,40.74,4.727ZM43.75,35H25.083l5.073-13.944-4.7-1.711L19.762,35H1.25A1.25,1.25,0,0,0,0,36.248v2.5A1.25,1.25,0,0,0,1.25,40h42.5A1.25,1.25,0,0,0,45,38.749v-2.5A1.25,1.25,0,0,0,43.75,35Z" transform="translate(-406 -284)" fill="#5e2"/>
  </g>
</svg>
