<svg xmlns="http://www.w3.org/2000/svg" width="100" height="100" viewBox="0 0 100 100">
  <g id="icon-run" transform="translate(0 449)">
    <g id="Grupo_7" data-name="Grupo 7" transform="translate(118)">
      <g id="Grupo_18" data-name="Grupo 18">
        <circle id="Elipse_3" data-name="Elipse 3" cx="50" cy="50" r="50" transform="translate(-118 -449)" fill="#005"/>
        <path id="Icon_awesome-running" data-name="Icon awesome-running" d="M39.231,11.25c3.824,0,6.923-2.518,6.923-5.625S43.054,0,39.231,0s-6.923,2.518-6.923,5.625S35.407,11.25,39.231,11.25ZM16.4,37.2,14.263,41.25H4.615C2.067,41.25,0,42.93,0,45s2.067,3.75,4.615,3.75H15.786a7.1,7.1,0,0,0,6.362-3.409l1.268-2.4L21.877,42.2A12.318,12.318,0,0,1,16.4,37.2ZM55.385,26.25h-6.35l-3.759-6.24a13.564,13.564,0,0,0-8.911-5.97L26.113,11.562a16.333,16.333,0,0,0-11.66,2.009L8.732,17.135a3.3,3.3,0,0,0-.854,5.257,5.356,5.356,0,0,0,6.47.694l5.725-3.564a5.3,5.3,0,0,1,3.645-.72l2.12.512-5.4,10.241c-1.82,3.455-.189,7.5,3.793,9.412l12.257,5.88L32.523,55.128c-.762,1.976.593,4.079,3.025,4.7A5.6,5.6,0,0,0,36.929,60a4.623,4.623,0,0,0,4.4-2.631l4.563-11.843c.852-2.434-.417-5.049-3.121-6.374L33.94,34.916l4.516-9.174L41.38,30.6A7.258,7.258,0,0,0,47.6,33.749h7.787C57.933,33.749,60,32.07,60,30s-2.067-3.749-4.615-3.749Z" transform="translate(-98 -429)" fill="#5e2"/>
      </g>
    </g>
  </g>
</svg>
