<svg xmlns="http://www.w3.org/2000/svg" width="100" height="100" viewBox="0 0 100 100">
  <g id="icon-group" transform="translate(436 434)">
    <circle id="Elipse_11" data-name="Elipse 11" cx="50" cy="50" r="50" transform="translate(-436 -434)" fill="#005"/>
    <path id="Icon_awesome-user-friends" data-name="Icon awesome-user-friends" d="M15,19.75A8.75,8.75,0,1,0,6.25,11,8.746,8.746,0,0,0,15,19.75Zm6,2.5h-.648a12.081,12.081,0,0,1-10.7,0H9a9,9,0,0,0-9,9V33.5a3.751,3.751,0,0,0,3.75,3.75h22.5A3.751,3.751,0,0,0,30,33.5V31.25A9,9,0,0,0,21,22.25Zm16.5-2.5a7.5,7.5,0,1,0-7.5-7.5A7.5,7.5,0,0,0,37.5,19.75Zm3.75,2.5h-.3a9.852,9.852,0,0,1-6.906,0h-.3a8.677,8.677,0,0,0-4.352,1.2,11.433,11.433,0,0,1,3.1,7.8v3c0,.172-.039.336-.047.5h13.8A3.751,3.751,0,0,0,50,31a8.746,8.746,0,0,0-8.75-8.75Z" transform="translate(-411 -403.75)" fill="#5e2"/>
  </g>
</svg>
