<svg xmlns="http://www.w3.org/2000/svg" width="87.5" height="100" viewBox="0 0 87.5 100" fill="#55EE22">
  <path id="icon-bell" d="M43.75,100A12.5,12.5,0,0,0,56.244,87.5H31.256A12.5,12.5,0,0,0,43.75,100ZM85.818,70.76c-3.773-4.055-10.834-10.154-10.834-30.135C74.984,25.449,64.344,13.3,50,10.32V6.25a6.246,6.246,0,1,0-12.492,0v4.07c-14.348,2.98-24.988,15.129-24.988,30.3,0,19.98-7.061,26.08-10.834,30.135A6.1,6.1,0,0,0,0,75a6.256,6.256,0,0,0,6.27,6.25H81.231A6.254,6.254,0,0,0,87.5,75a6.1,6.1,0,0,0-1.682-4.24Z"/>
</svg>
