<svg xmlns="http://www.w3.org/2000/svg" width="101" height="101" viewBox="0 0 101 101">
  <g id="icon-pray" transform="translate(-1368 452.298)">
    <circle id="Elipse_14" data-name="Elipse 14" cx="50.5" cy="50.5" r="50.5" transform="translate(1368 -452.298)" fill="#005"/>
    <path id="Icon_awesome-pray" data-name="Icon awesome-pray" d="M33.477,16.738a8.369,8.369,0,1,0-8.369-8.369A8.369,8.369,0,0,0,33.477,16.738Zm-4.005,22.2a5.236,5.236,0,0,0,7.319.683L48.3,30.2a5.231,5.231,0,1,0-6.629-8.095l-7.511,6.146L29.07,22.2A9.562,9.562,0,0,0,20.7,18.884a9.4,9.4,0,0,0-7.371,4.828L6.873,35.747a12.2,12.2,0,0,0,4.471,16.183l5.86,4.562H5.231a5.231,5.231,0,1,0,0,10.461h27.2a5.263,5.263,0,0,0,3.7-8.929L21.762,43.658l4.551-8.483Z" transform="translate(1393.107 -434.653)" fill="#5e2"/>
  </g>
</svg>
