<svg xmlns="http://www.w3.org/2000/svg" width="100" height="100" viewBox="0 0 100 100">
  <g id="icon-market" transform="translate(386 230)">
    <circle id="Elipse_5" data-name="Elipse 5" cx="50" cy="50" r="50" transform="translate(-386 -230)" fill="#005"/>
    <path id="Icon_awesome-shopping-cart" data-name="Icon awesome-shopping-cart" d="M45.844,26.156,49.947,8.1a2.083,2.083,0,0,0-2.032-2.545H13.82l-.8-3.89A2.083,2.083,0,0,0,10.983,0h-8.9A2.083,2.083,0,0,0,0,2.083V3.472A2.083,2.083,0,0,0,2.083,5.556H8.15l6.1,29.812a4.862,4.862,0,1,0,5.82.743h18.2a4.86,4.86,0,1,0,5.521-.9l.479-2.107a2.083,2.083,0,0,0-2.032-2.545h-23.3l-.568-2.778H43.812A2.083,2.083,0,0,0,45.844,26.156Z" transform="translate(-361 -202.222)" fill="#5e2"/>
  </g>
</svg>
