<svg xmlns="http://www.w3.org/2000/svg" width="87.5" height="100" viewBox="0 0 87.5 100" fill="#EE8855">
  <g id="icon-trash" transform="translate(-1260 -858)">
    <g id="Grupo_43" data-name="Grupo 43" transform="translate(1260 858)">
      <path id="Icon_awesome-trash-alt" data-name="Icon awesome-trash-alt" d="M6.25,90.625A9.375,9.375,0,0,0,15.625,100h56.25a9.375,9.375,0,0,0,9.375-9.375V25h-75Zm53.125-50a3.125,3.125,0,1,1,6.25,0v43.75a3.125,3.125,0,0,1-6.25,0Zm-18.75,0a3.125,3.125,0,1,1,6.25,0v43.75a3.125,3.125,0,0,1-6.25,0Zm-18.75,0a3.125,3.125,0,1,1,6.25,0v43.75a3.125,3.125,0,0,1-6.25,0ZM84.375,6.25H60.937L59.1,2.6A4.688,4.688,0,0,0,54.9,0H32.578A4.633,4.633,0,0,0,28.4,2.6L26.562,6.25H3.125A3.125,3.125,0,0,0,0,9.375v6.25A3.125,3.125,0,0,0,3.125,18.75h81.25A3.125,3.125,0,0,0,87.5,15.625V9.375A3.125,3.125,0,0,0,84.375,6.25Z" transform="translate(0 0)"/>
    </g>
  </g>
</svg>
