<svg xmlns="http://www.w3.org/2000/svg" width="100" height="100" viewBox="0 0 100 100">
  <g id="icon-food" transform="translate(-250 452)">
    <circle id="Elipse_6" data-name="Elipse 6" cx="50" cy="50" r="50" transform="translate(250 -452)" fill="#005"/>
    <path id="Icon_map-food" data-name="Icon map-food" d="M50.61,16.17l-4.1,36.654H32.666L28.584,15.987h16.9L48.826,2.825l1.894.651L47.515,16.143l3.095.027ZM26.626,37.377s.518-4.753-6.661-4.753H8.531c-7.169,0-6.661,4.753-6.661,4.753H26.626ZM1.87,48.071s-.507,4.753,6.661,4.753H19.966c7.179,0,6.661-4.753,6.661-4.753Zm23.682-2.377c1.175,0,2.124-1.324,2.124-2.97s-.949-2.972-2.124-2.972H2.845C1.675,39.753.72,41.07.72,42.725s.955,2.97,2.125,2.97H25.552Z" transform="translate(274.28 -429.825)" fill="#5e2"/>
  </g>
</svg>
